<svg width="14" height="14" viewBox="0 0 14 14" fill="none" xmlns="http://www.w3.org/2000/svg">
<path fill-rule="evenodd" clip-rule="evenodd" d="M3 0C2.73478 0 2.48043 0.105357 2.29289 0.292893C2.10536 0.48043 2 0.734784 2 1V3H1.5C0.672 3 0 3.672 0 4.5V12.5C0 13.328 0.672 14 1.5 14H12.5C13.328 14 14 13.328 14 12.5V4.5C14 3.672 13.328 3 12.5 3H12V1C12 0.734784 11.8946 0.48043 11.7071 0.292893C11.5196 0.105357 11.2652 0 11 0H3ZM3 1H11V3H3V1ZM1.5 4H12.5C12.6326 4 12.7598 4.05268 12.8536 4.14645C12.9473 4.24021 13 4.36739 13 4.5V6.629L9 7.828V7.75C9 7.41848 8.8683 7.10054 8.63388 6.86612C8.39946 6.6317 8.08152 6.5 7.75 6.5H6.25C5.91848 6.5 5.60054 6.6317 5.36612 6.86612C5.1317 7.10054 5 7.41848 5 7.75V7.828L1 6.629V4.5C1 4.36739 1.05268 4.24021 1.14645 4.14645C1.24021 4.05268 1.36739 4 1.5 4ZM6.25 7.5H7.75C7.8163 7.5 7.87989 7.52634 7.92678 7.57322C7.97366 7.62011 8 7.6837 8 7.75V9.25C8 9.3163 7.97366 9.37989 7.92678 9.42678C7.87989 9.47366 7.8163 9.5 7.75 9.5H6.25C6.1837 9.5 6.12011 9.47366 6.07322 9.42678C6.02634 9.37989 6 9.3163 6 9.25V7.75C6 7.6837 6.02634 7.62011 6.07322 7.57322C6.12011 7.52634 6.1837 7.5 6.25 7.5ZM1 7.672L2.5 8.121V13H1.5C1.36739 13 1.24021 12.9473 1.14645 12.8536C1.05268 12.7598 1 12.6326 1 12.5V7.672ZM13 7.672V12.5C13 12.6326 12.9473 12.7598 12.8536 12.8536C12.7598 12.9473 12.6326 13 12.5 13H11.5V8.121L13 7.672ZM3.5 8.422L5 8.871V9.25C5 9.58152 5.1317 9.89946 5.36612 10.1339C5.60054 10.3683 5.91848 10.5 6.25 10.5H7.75C8.08152 10.5 8.39946 10.3683 8.63388 10.1339C8.8683 9.89946 9 9.58152 9 9.25V8.871L10.5 8.422V13H3.5V8.422Z" fill="#181f2f"/>
</svg>
