<svg width="14" height="16" viewBox="0 0 14 16" fill="none" xmlns="http://www.w3.org/2000/svg">
<path d="M11.9375 0.876719H10.1773C9.71287 0.340281 9.02837 0 8.26562 0H5.73438C4.97162 0 4.28712 0.340281 3.82266 0.876719H2.0625C1.28709 0.876719 0.65625 1.50881 0.65625 2.28572V14.591C0.65625 15.3679 1.28709 16 2.0625 16H11.9375C12.7129 16 13.3438 15.3679 13.3438 14.591V2.28572C13.3438 1.50878 12.7129 0.876719 11.9375 0.876719ZM5.73438 0.939344H8.26562C8.98991 0.939344 9.59141 1.42419 9.78906 2.06653H4.21094C4.40825 1.42531 5.00897 0.939344 5.73438 0.939344ZM12.4062 14.591C12.4062 14.85 12.196 15.0607 11.9375 15.0607H2.0625C1.80403 15.0607 1.59375 14.85 1.59375 14.591V2.28572C1.59375 2.02675 1.80403 1.81606 2.0625 1.81606H3.30769C3.23834 2.04983 3.20312 2.29238 3.20312 2.53622C3.20312 2.79559 3.413 3.00588 3.67188 3.00588H10.3281C10.587 3.00588 10.7969 2.79559 10.7969 2.53622C10.7969 2.29238 10.7617 2.04983 10.6923 1.81606H11.9375C12.196 1.81606 12.4062 2.02675 12.4062 2.28572V14.591Z" fill="#181f2f"/>
</svg>
