<svg xmlns="http://www.w3.org/2000/svg" fill="none" viewBox="0 0 16 16" id="Paperclip-1--Streamline-Core.svg" height="16" width="16"><desc>Paperclip 1 Streamline Icon: https://streamlinehq.com</desc><g id="paperclip-1--attachment-link-paperclip-unlink"><path id="Vector (Stroke)" fill="#8fbffa" fill-rule="evenodd" d="M10.72342857142857 1.7142857142857142c-0.17577142857142855 0 -0.3498057142857143 0.0348 -0.5120571428571429 0.10239999999999999 -0.16226285714285713 0.0676 -0.30952 0.16665142857142856 -0.4333028571428571 0.2914514285714286l-0.0015199999999999999 0.0015314285714285714L2.840662857142857 9.067428571428572c-0.3509942857142857 0.35740571428571427 -0.5476914285714285 0.8383428571428572 -0.5476914285714285 1.3393485714285713 0 0.5017942857142857 0.19732571428571427 0.9834742857142856 0.5493714285714285 1.3409942857142856l1.9482285714285714 1.981142857142857c0.17283428571428572 0.1761142857142857 0.3796685714285714 0.31657142857142856 0.6072114285714285 0.41211428571428566 0.22753142857142855 0.09554285714285712 0.4718171428571428 0.14468571428571428 0.7185828571428571 0.14468571428571428s0.4910514285714285 -0.049142857142857134 0.7185942857142857 -0.14468571428571428c0.22753142857142855 -0.09554285714285712 0.4337485714285714 -0.2354285714285714 0.6065942857142856 -0.4115428571428571l0.0031199999999999995 -0.0031999999999999997 6.511211428571428 -6.565828571428571c0.33325714285714286 -0.33613714285714286 0.8759999999999999 -0.3384 1.2121142857142857 -0.005074285714285714 0.33611428571428564 0.33333714285714283 0.3384 0.8760457142857142 0.005142857142857143 1.2121714285714287L8.665051428571429 14.930285714285713c-0.0005485714285714285 0.0005714285714285714 -0.001097142857142857 0.0011428571428571427 -0.0016457142857142857 0.0015999999999999999 -0.33208 0.33794285714285716 -0.7281142857142857 0.6065142857142857 -1.1650057142857142 0.7898285714285714 -0.43761142857142854 0.18365714285714285 -0.9074399999999999 0.27828571428571425 -1.3820342857142855 0.27828571428571425 -0.47459428571428564 0 -0.9444228571428571 -0.09462857142857142 -1.3820342857142855 -0.27828571428571425 -0.4375657142857142 -0.18365714285714285 -0.8341257142857141 -0.45268571428571425 -1.166537142857143 -0.7913142857142856 -0.00003428571428571428 0 0.00004571428571428572 0 0 0l-1.9470285714285716 -1.979885714285714C0.9529737142857143 12.272228571428572 0.5786834285714285 11.358605714285714 0.5786834285714285 10.406777142857143c0 -0.95184 0.3742902857142857 -1.8654971428571427 1.0420822857142857 -2.54376l0.0037257142857142853 -0.003794285714285714L8.560925714285714 0.9009337142857143c0.0002971428571428571 -0.00030057142857142853 0.0005942857142857142 -0.0006 0.0008914285714285713 -0.0009005714285714285 0.28296 -0.28505142857142857 0.6195085714285714 -0.5113257142857143 0.9902742857142857 -0.6657919999999999C9.923245714285715 0.0796112 10.321348571428572 0 10.72342857142857 0c0.40206857142857144 0 0.8002285714285714 0.07961097142857143 1.1713142857142855 0.23424114285714284 0.37062857142857136 0.15438971428571427 0.7069714285714286 0.3805142857142857 0.9898285714285714 0.6653634285714285 0.00045714285714285713 0.0004434285714285714 0.0009142857142857143 0.0008857142857142857 0.0013714285714285712 0.001329142857142857l0.7719999999999999 0.771992c0.00045714285714285713 0.00044571428571428567 0.0009142857142857143 0.0008799999999999999 0.001257142857142857 0.0013257142857142858 0.2849142857142857 0.2828685714285714 0.5109714285714285 0.6192571428571428 0.6653714285714286 0.98984 0.15462857142857142 0.37115428571428566 0.23428571428571426 0.7692571428571429 0.23428571428571426 1.1713257142857143 0 0.40208 -0.07965714285714286 0.8001828571428571 -0.23428571428571426 1.1713371428571429 -0.15428571428571428 0.37034285714285714 -0.3802285714285714 0.7065485714285713 -0.6648 0.989302857142857 -0.0005714285714285714 0.0006285714285714285 -0.001257142857142857 0.0012457142857142858 -0.0018285714285714285 0.0018628571428571427L7.512845714285714 12.164914285714284c-0.00030857142857142856 0.00022857142857142857 -0.0006285714285714285 0.0005714285714285714 -0.0009371428571428571 0.0009142857142857143 -0.18122285714285713 0.18239999999999998 -0.39671999999999996 0.32731428571428567 -0.6341142857142856 0.42617142857142853 -0.23780571428571426 0.09908571428571428 -0.4928685714285714 0.15005714285714286 -0.7504799999999999 0.15005714285714286 -0.25762285714285715 0 -0.5126857142857143 -0.05097142857142857 -0.7504914285714286 -0.15005714285714286 -0.23780571428571426 -0.09908571428571428 -0.4536342857142857 -0.2442285714285714 -0.6350514285714285 -0.42708571428571424l-0.006022857142857143 -0.006171428571428572 -0.37832 -0.3891428571428571c-0.17994285714285713 -0.1801142857142857 -0.3229142857142857 -0.3936914285714286 -0.42084571428571427 -0.6287542857142857 -0.09907428571428571 -0.23780571428571426 -0.15008 -0.4928685714285714 -0.15008 -0.7504914285714286 0 -0.25761142857142855 0.051005714285714286 -0.5126742857142856 0.15008 -0.7504799999999999 0.09905142857142857 -0.23777142857142858 0.24420571428571428 -0.45358857142857145 0.42708571428571424 -0.6349828571428572 -0.00002285714285714286 0.00002285714285714286 0.00002285714285714286 -0.00002285714285714286 0 0l4.1255428571428565 -4.092754285714285c0.3360685714285714 -0.3333942857142857 0.8787771428571428 -0.33122285714285715 1.2121714285714287 0.004845714285714286 0.33340571428571425 0.3360685714285714 0.33123428571428565 0.8787771428571428 -0.004834285714285715 1.2121714285714287L5.571005714285714 10.221897142857143c-0.022228571428571427 0.02205714285714286 -0.03994285714285714 0.04835428571428571 -0.051977142857142854 0.07724571428571428 -0.012045714285714286 0.02890285714285714 -0.018239999999999996 0.05990857142857143 -0.018239999999999996 0.09121142857142857 0 0.03131428571428571 0.006194285714285715 0.06230857142857142 0.018239999999999996 0.09121142857142857 0.012034285714285713 0.02890285714285714 0.029679999999999998 0.05513142857142857 0.05190857142857143 0.07718857142857143l0.011062857142857142 0.01097142857142857 0.3788457142857143 0.3898628571428571c0.021645714285714282 0.021325714285714285 0.04718857142857143 0.03830857142857143 0.07525714285714286 0.049999999999999996 0.02889142857142857 0.012034285714285713 0.05989714285714285 0.018239999999999996 0.09121142857142857 0.018239999999999996 0.03130285714285714 0 0.06230857142857142 -0.006205714285714285 0.09119999999999999 -0.018239999999999996 0.02890285714285714 -0.012045714285714286 0.05514285714285714 -0.02969142857142857 0.07718857142857143 -0.051919999999999994l0.0014057142857142855 -0.0014057142857142855 6.150091428571429 -6.171931428571428 0.0035428571428571427 -0.003554285714285714c0.1248 -0.12378285714285714 0.22377142857142857 -0.27105142857142855 0.2914285714285714 -0.4333028571428571 0.06754285714285714 -0.16225142857142857 0.10239999999999999 -0.3362742857142857 0.10239999999999999 -0.5120571428571429 0 -0.17577142857142855 -0.03485714285714286 -0.3498057142857143 -0.10239999999999999 -0.5120571428571429 -0.06765714285714286 -0.16225142857142857 -0.16662857142857143 -0.3095085714285714 -0.2914285714285714 -0.43329142857142855l-0.002514285714285714 -0.00248 -0.7769142857142857 -0.77696 -0.002514285714285714 -0.0024914285714285715c-0.12377142857142856 -0.1248 -0.2710628571428571 -0.22385142857142853 -0.43331428571428565 -0.2914514285714286C11.073234285714285 1.7490857142857144 10.899199999999999 1.7142857142857142 10.72342857142857 1.7142857142857142Z" clip-rule="evenodd" stroke-width="1"></path></g></svg>