<svg xmlns="http://www.w3.org/2000/svg" fill="none" viewBox="0 0 14 14" id="Clapping--Streamline-Flex.svg" height="14" width="14"><desc>Clapping Streamline Icon: https://streamlinehq.com</desc><g id="clapping"><path id="Subtract" fill="#d7e0ff" fill-rule="evenodd" d="M5.66976 13.4954c-0.20256 -0.1418 -0.4162 -0.2951 -0.62771 -0.4565 -0.62324 -0.4756 -1.43903 -1.1736 -1.92447 -2.1005 -0.56432 -1.07746 -0.61298 -2.25932 -0.49754 -3.22323 0.11272 -0.94119 0.40074 -1.84357 0.73685 -2.57435 -0.81299 -0.39777 -1.80935 -0.13028 -2.20388 0.69962C0.588913 7.02703 0.181517 8.82783 0.837049 10.0795c0.448391 0.8561 1.505301 1.5805 2.400921 2.1944 0.25186 0.1726 0.49097 0.3365 0.7002 0.4921 0.69323 0.5155 1.26358 0.7004 1.73159 0.7294Z" clip-rule="evenodd" stroke-width="1"></path><path id="Subtract_2" stroke="#4147d5" stroke-linecap="round" d="M2.94841 4.99895c-0.71313 -0.15384 -1.46513 0.14677 -1.7954 0.84149C0.588913 7.02703 0.181517 8.82783 0.837049 10.0795c0.448391 0.8561 1.505301 1.5805 2.400921 2.1944 0.25186 0.1726 0.49097 0.3365 0.7002 0.4921 0.25458 0.1893 0.4926 0.334 0.71505 0.4428l0.56717 0.2351" stroke-width="1"></path><path id="Vector 555" fill="#d7e0ff" d="M10.9007 13.2141c-0.5497 0.1974 -1.4875 0.7124 -3.04798 -0.4482 -0.95326 -0.7089 -2.52663 -1.5896 -3.10112 -2.6865 -0.65553 -1.2516 -0.24814 -3.0524 0.31596 -4.23899 0.41313 -0.86901 1.48613 -1.12136 2.31751 -0.63895 0.91519 0.53103 1.79268 1.12336 2.65173 1.74349l-0.32863 -1.60359c-0.13286 -0.64826 0.28341 -1.28185 0.93023 -1.41592 0.5236 -0.10852 1.0442 0.14379 1.2923 0.59725 0.0781 0.14274 0.1316 0.29802 0.2018 0.44482 0.7033 1.47135 1.1502 2.95976 1.3675 4.58619 -0.5536 1.4966 -1.3666 2.6504 -2.5993 3.6604Z" stroke-width="1"></path><path id="Vector 546" stroke="#4147d5" stroke-linecap="round" stroke-linejoin="round" d="M3.35303 1.2168 3.14411 0.500352" stroke-width="1"></path><path id="Vector 547" stroke="#4147d5" stroke-linecap="round" stroke-linejoin="round" d="m6.09668 1.07837 -0.37339 0.64589" stroke-width="1"></path><path id="Vector 550" stroke="#4147d5" stroke-linecap="round" stroke-linejoin="round" d="m1.06982 2.71045 0.71078 0.22368" stroke-width="1"></path><path id="Vector 556" stroke="#4147d5" stroke-linecap="round" stroke-linejoin="round" d="M10.9007 13.2141c-0.5497 0.1974 -1.4875 0.7124 -3.04798 -0.4482 -0.95326 -0.7089 -2.52663 -1.5896 -3.10112 -2.6865 -0.65553 -1.2516 -0.24814 -3.0524 0.31596 -4.23899 0.41313 -0.86901 1.48613 -1.12136 2.31751 -0.63895 0.91519 0.53103 1.79268 1.12336 2.65173 1.74349l-0.32863 -1.60359c-0.13286 -0.64826 0.28341 -1.28185 0.93023 -1.41592 0.5236 -0.10852 1.0442 0.14379 1.2923 0.59725 0.0781 0.14274 0.1316 0.29802 0.2018 0.44482 0.7033 1.47135 1.1502 2.95976 1.3675 4.58619" stroke-width="1"></path></g></svg>