<svg id="Layer_1" data-name="Layer 1" xmlns="http://www.w3.org/2000/svg" viewBox="0 0 40.75 50.34"><defs><style>.cls-1{fill:#343d6c;}.cls-2{fill:#4c58db;}.cls-3{fill:#f2f3f6;}</style></defs><path class="cls-1" d="M508.92,70.44c.27-5.32.4-10.65.92-15.93.16-1.64,1.08-4.23,2.18-4.56,3.56-1,5.44-3.37,7.69-6.07,3.63-4.35,19.06-2.07,21.93,2.68.52.86,1.42,2,2.26,2.07,4.84.59,5.75,3.86,5.76,7.86,0,9.31,0,18.62,0,27.93,0,4.87-2.08,7.5-7.13,7.48-8.64,0-17.29,0-25.93,0-4.62,0-7-2.07-7-7S509.18,75.26,508.92,70.44Zm39,0c-.35-5.25-.7-10.55-1.08-15.86-.23-3.18-3.24-4.76-4.61-2.87-4.54,6.3-10.78,4.21-16.46,4.2-2.49,0-5-2-7.46-3-1.24-.53-2.91-1.76-3.67-1.35A5.32,5.32,0,0,0,512,55.22c-.22,10-.27,20,.06,30,0,1.37,2.48,3.75,3.88,3.81,8.94.35,17.89.15,26.84.2,2.63,0,4-1,4.1-3.78C547.13,80.45,547.59,75.48,547.94,70.43ZM529.42,53.22v0c1.65,0,3.5.47,4.92-.11,1.88-.76,3.43-2.34,5.12-3.57C538,47.84,536.78,45,535,44.62a26.34,26.34,0,0,0-10.83-.11,6.28,6.28,0,0,0-4,4.54c-.06,1.31,2.53,3.17,4.31,4C525.84,53.75,527.76,53.22,529.42,53.22Z" transform="translate(-508.92 -41.56)"/><path class="cls-2" d="M547.94,70.43c-.35,5-.81,10-1,15-.12,2.8-1.47,3.79-4.1,3.78-9,0-17.9.15-26.84-.2-1.4-.06-3.83-2.44-3.88-3.81-.33-10-.28-20-.06-30a5.32,5.32,0,0,1,2.62-3.71c.76-.41,2.43.82,3.67,1.35,2.49,1.06,5,3,7.46,3,5.68,0,11.92,2.1,16.46-4.2,1.37-1.89,4.38-.31,4.61,2.87C547.24,59.88,547.59,65.18,547.94,70.43ZM527.86,81.74c3.64-5.76,7.21-11.43,10.78-17.1-6.1,2.48-8.61,7.94-11.19,13.17l-5.78-4-1.14,1.42Z" transform="translate(-508.92 -41.56)"/><path class="cls-2" d="M529.42,53.22c-1.66,0-3.58.53-4.91-.13-1.78-.87-4.37-2.73-4.31-4a6.28,6.28,0,0,1,4-4.54,26.34,26.34,0,0,1,10.83.11c1.78.42,3,3.22,4.46,4.94-1.69,1.23-3.24,2.81-5.12,3.57-1.42.58-3.27.11-4.92.11Z" transform="translate(-508.92 -41.56)"/><path class="cls-3" d="M527.86,81.74l-7.33-6.47,1.14-1.42,5.78,4c2.58-5.23,5.09-10.69,11.19-13.17C535.07,70.31,531.5,76,527.86,81.74Z" transform="translate(-508.92 -41.56)"/></svg>
