<svg id="Layer_1" data-name="Layer 1" xmlns="http://www.w3.org/2000/svg" viewBox="0 0 41.35 41.17"><defs><style>.cls-1{fill:#343d6c;}.cls-2{fill:#29bfaf;}.cls-3{fill:#f2f3f6;}</style></defs><path class="cls-1" d="M643.73,266.79c-17.45,0-20.57-3.17-20.52-20.64,0-17.18,3.5-20.57,20.85-20.53,17.12,0,20.36,3.27,20.49,20.34C664.69,263.66,661.53,266.82,643.73,266.79Zm-17.89-20.33c0,2.82-.12,5.65,0,8.47.3,5.67,3.28,9.09,8.92,9.42a149.12,149.12,0,0,0,18.43,0c5.43-.35,8.47-3.73,8.65-9.12.21-6,.19-12,0-17.94-.14-4.74-2.83-7.77-7.44-8.7a44.26,44.26,0,0,0-9.39-.94C627,227.87,625.3,230.13,625.84,246.46Z" transform="translate(-623.21 -225.62)"/><path class="cls-2" d="M625.84,246.46c-.54-16.33,1.13-18.59,19.19-18.84a44.26,44.26,0,0,1,9.39.94c4.61.93,7.3,4,7.44,8.7.19,6,.21,12,0,17.94-.18,5.39-3.22,8.77-8.65,9.12a149.12,149.12,0,0,1-18.43,0c-5.64-.33-8.62-3.75-8.92-9.42C625.72,252.11,625.84,249.28,625.84,246.46Zm30.68-5.34-1.2-.51c.42-4.42-2-6.71-5.9-5.67A76,76,0,0,0,633,241.22c-4.2,2.27-3.85,5.75.66,7.7a13.85,13.85,0,0,1,7.61,7.64c2,4.3,5.49,4.56,7.87.47C652.05,252,654.09,246.45,656.52,241.12Z" transform="translate(-623.21 -225.62)"/><path class="cls-3" d="M656.52,241.12c-2.43,5.33-4.47,10.88-7.4,15.91-2.38,4.09-5.88,3.83-7.87-.47a13.85,13.85,0,0,0-7.61-7.64c-4.51-1.95-4.86-5.43-.66-7.7a76,76,0,0,1,16.44-6.28c3.9-1,6.32,1.25,5.9,5.67Zm-24.29,3.59c5.62,8.13,9.77,1,14.44-.91-1.37,2.33-3.9,3.81-4.26,5.71-.44,2.32.89,5,1.65,7.47,0,.1,2.58,0,3.15-.73,3.88-4.75,6.25-10.21,5.83-16.45-.08-1.06-2-2.88-3-2.84C643.29,237.24,637.19,239.41,632.23,244.71Z" transform="translate(-623.21 -225.62)"/><path class="cls-2" d="M632.23,244.71c5-5.3,11.06-7.47,17.84-7.75,1,0,2.89,1.78,3,2.84.42,6.24-1.95,11.7-5.83,16.45-.57.69-3.12.83-3.15.73-.76-2.47-2.09-5.15-1.65-7.47.36-1.9,2.89-3.38,4.26-5.71C642,245.75,637.85,252.84,632.23,244.71Z" transform="translate(-623.21 -225.62)"/></svg>
