<svg xmlns="http://www.w3.org/2000/svg" fill="none" viewBox="0 0 14 14" id="Industry-Innovation-And-Infrastructure--Streamline-Core.svg" height="14" width="14"><desc>Industry Innovation And Infrastructure Streamline Icon: https://streamlinehq.com</desc><g id="industry-innovation-and-infrastructure"><path id="Subtract" fill="#d7e0ff" fill-rule="evenodd" d="M0.6419 7.6825V11.3157L3.821 12.6782L7.0001 11.3157L10.179 12.6782L13.3581 11.3157V7.6825L13.3495 7.6788L10.179 9.0377L7.0001 7.6752L10.179 6.32L10.1811 2.6843L10.179 2.7109L6.9999 4.0734L3.8229 2.7118L3.821 6.32L7.0001 7.6752L3.8208 9.0391L0.6419 7.6825Z" clip-rule="evenodd" stroke-width="1"></path><g id="Vector"><path fill="#ffffff" d="M7.002 1.3218L10.1811 2.6843L10.179 2.7109L6.9999 4.0734L3.8208 2.7109L3.8229 2.6843L7.002 1.3218Z" stroke-width="1"></path><path fill="#ffffff" d="M10.179 6.32L13.3495 7.6788L10.179 9.0376L7.0001 7.6752L3.8208 9.0391L0.6419 7.6825L3.821 6.32L7.0001 7.6752L10.179 6.32Z" stroke-width="1"></path></g><path id="Vector 840" stroke="#4147d5" stroke-linecap="round" stroke-linejoin="round" d="M0.6419 7.6752L3.821 9.0376L7.0001 7.6752" stroke-width="1"></path><path id="Vector 841" stroke="#4147d5" stroke-linecap="round" stroke-linejoin="round" d="M3.8208 2.7109L6.9999 4.0733L10.179 2.7109" stroke-width="1"></path><path id="Vector 842" stroke="#4147d5" stroke-linecap="round" stroke-linejoin="round" d="M6.9999 7.6752L10.179 9.0376L13.3581 7.6752" stroke-width="1"></path><path id="Vector 835" stroke="#4147d5" stroke-linecap="round" stroke-linejoin="round" d="M0.6419 11.3157V7.6825L3.821 6.32L7.0001 7.6825V11.3157L3.821 12.6782L0.6419 11.3157Z" stroke-width="1"></path><path id="Vector 839" stroke="#4147d5" stroke-linecap="round" stroke-linejoin="round" d="M3.8229 6.3175V2.6843L7.002 1.3218L10.1811 2.6843V6.3175L7.002 7.68L3.8229 6.3175Z" stroke-width="1"></path><path id="Vector 837" stroke="#4147d5" stroke-linecap="round" stroke-linejoin="round" d="M6.9999 11.3157V7.6825L10.179 6.32L13.3581 7.6825V11.3157L10.179 12.6782L6.9999 11.3157Z" stroke-width="1"></path><path id="Vector 1218" stroke="#4147d5" stroke-linecap="round" stroke-linejoin="round" d="M3.8208 9.039V12.6781" stroke-width="1"></path><path id="Vector 1219" stroke="#4147d5" stroke-linecap="round" stroke-linejoin="round" d="M10.181 9.039V12.6781" stroke-width="1"></path><path id="Vector 1220" stroke="#4147d5" stroke-linecap="round" stroke-linejoin="round" d="M6.9999 4.0734V7.7124" stroke-width="1"></path></g></svg>