<svg xmlns="http://www.w3.org/2000/svg" fill="none" viewBox="0 0 14 14" id="Half-Star-1--Streamline-Core.svg" height="14" width="14"><desc>Half Star 1 Streamline Icon: https://streamlinehq.com</desc><g id="half-star-1--reward-rating-rate-social-star-media-favorite-like-stars-half"><path id="Vector" fill="#d7e0ff" d="M10.1915 0.6304C10.0897 0.631 9.9903 0.6609 9.905 0.7166C9.8198 0.7723 9.7524 0.8513 9.7109 0.9443L8.1514 4.2398C8.1165 4.321 8.061 4.3917 7.9906 4.445C7.9201 4.4983 7.8369 4.5324 7.7493 4.5439L4.2772 5.0441C4.1717 5.0611 4.0731 5.1075 3.9927 5.1779C3.9123 5.2483 3.8534 5.3399 3.8226 5.4423C3.7919 5.5447 3.7907 5.6536 3.819 5.7567C3.8474 5.8597 3.9042 5.9527 3.9829 6.0249L6.4938 8.6045C6.5567 8.6682 6.6037 8.7457 6.631 8.8309C6.6582 8.9161 6.665 9.0066 6.6508 9.0949L6.023 12.724C6.0052 12.8241 6.0155 12.9272 6.0528 13.0217C6.0901 13.1163 6.1529 13.1987 6.2342 13.2597C6.3156 13.3207 6.4122 13.358 6.5135 13.3673C6.6147 13.3766 6.7166 13.3576 6.8077 13.3125L9.9463 11.6058C10.0249 11.5636 10.1122 11.5401 10.2013 11.5372L10.1915 0.6304Z" stroke-width="1"></path><path id="Vector_2" stroke="#4147d5" stroke-linecap="round" stroke-linejoin="round" d="M10.1915 0.6304C10.0897 0.631 9.9903 0.6609 9.905 0.7166C9.8198 0.7723 9.7524 0.8513 9.7109 0.9443L8.1514 4.2398C8.1165 4.321 8.061 4.3917 7.9906 4.445C7.9201 4.4983 7.8369 4.5324 7.7493 4.5439L4.2772 5.0441C4.1717 5.0611 4.0731 5.1075 3.9927 5.1779C3.9123 5.2483 3.8534 5.3399 3.8226 5.4423C3.7919 5.5447 3.7907 5.6536 3.819 5.7567C3.8474 5.8597 3.9042 5.9527 3.9829 6.0249L6.4938 8.6045C6.5567 8.6682 6.6037 8.7457 6.631 8.8309C6.6582 8.9161 6.665 9.0066 6.6508 9.0949L6.023 12.724C6.0052 12.8241 6.0155 12.9272 6.0528 13.0217C6.0901 13.1163 6.1529 13.1987 6.2342 13.2597C6.3156 13.3207 6.4122 13.358 6.5135 13.3673C6.6147 13.3766 6.7166 13.3576 6.8077 13.3125L9.9463 11.6058C10.0249 11.5636 10.1122 11.5401 10.2013 11.5372L10.1915 0.6304Z" stroke-width="1"></path></g></svg>