<svg id="Layer_1" data-name="Layer 1" xmlns="http://www.w3.org/2000/svg" viewBox="0 0 41.06 50.59"><defs><style>.cls-1{fill:#462e28;}.cls-2{fill:#c20303;}.cls-3{fill:#e3e5e9;}</style></defs><path class="cls-1" d="M846.77,70.22c-.28,5.32-.63,10.64-.81,16-.14,3.92-2.23,5.84-6,5.88q-14.24.14-28.45,0c-3.75,0-5.86-2-5.85-6,0-10.64,0-21.28,0-31.92,0-1,.15-2.63.62-2.79,6.17-2,8.43-10.45,16.22-9.76a31.19,31.19,0,0,0,7.48,0c5.49-.85,6.43,5.37,10,6.37,5.42,1.54,6,4.8,6.08,9.27S846.53,65.89,846.77,70.22Zm-2.91.35h0c0-5,.19-10-.11-15-.1-1.52-1.26-3.74-2.48-4.22s-3.32.68-4.5,1.72c-4.4,3.89-17.14,4.07-21.61.31-1.33-1.12-3.73-2.47-4.82-2-1.3.6-2.37,3.08-2.41,4.78-.23,9.32-.06,18.66-.14,28,0,3.46,1.45,5.45,4.93,5.48,8.8.08,17.6,0,26.4,0,3.59,0,4.85-2.22,4.79-5.59C843.79,79.57,843.86,75.07,843.86,70.57ZM825.79,53.21v.06c1.66,0,3.57.52,4.92-.13,1.93-.93,3.45-2.73,5.15-4.15-1.51-1.63-2.82-4.31-4.58-4.67a30.4,30.4,0,0,0-11.37,0c-1.61.3-3.6,2.92-3.83,4.69-.16,1.23,2.15,3.38,3.8,4.07S823.8,53.21,825.79,53.21Z" transform="translate(-805.71 -41.53)"/><path class="cls-2" d="M843.86,70.57c0,4.5-.07,9,0,13.49.06,3.37-1.2,5.56-4.79,5.59-8.8.08-17.6.11-26.4,0-3.48,0-5-2-4.93-5.48.08-9.33-.09-18.67.14-28,0-1.7,1.11-4.18,2.41-4.78,1.09-.51,3.49.84,4.82,2,4.47,3.76,17.21,3.58,21.61-.31,1.18-1,3.36-2.16,4.5-1.72s2.38,2.7,2.48,4.22c.3,5,.11,10,.11,15Zm-26.21,6.64L819,78.6l7.24-6.16,7,6.17,1.33-1.52-6.2-6.63c2.16-2.6,4.12-4.95,6.08-7.29l-1.31-1.27-6.91,6.28L819,62.05l-1.26,1.32,6.44,6.95Z" transform="translate(-805.71 -41.53)"/><path class="cls-2" d="M825.79,53.21c-2,0-4.22.56-5.91-.16s-4-2.84-3.8-4.07c.23-1.77,2.22-4.39,3.83-4.69a30.4,30.4,0,0,1,11.37,0c1.76.36,3.07,3,4.58,4.67-1.7,1.42-3.22,3.22-5.15,4.15-1.35.65-3.26.13-4.92.13Z" transform="translate(-805.71 -41.53)"/><path class="cls-3" d="M817.65,77.21l6.49-6.89-6.44-6.95L819,62.05l7.3,6.13,6.91-6.28,1.31,1.27c-2,2.34-3.92,4.69-6.08,7.29l6.2,6.63-1.33,1.52-7-6.17L819,78.6Z" transform="translate(-805.71 -41.53)"/></svg>
