<svg width="18" height="7" viewBox="0 0 18 7" fill="none" xmlns="http://www.w3.org/2000/svg">
<path d="M16.001 3.58326H16.501V4.08326V5.83297C16.501 5.87895 16.5383 5.91622 16.5843 5.91622C16.6303 5.91622 16.6675 5.87893 16.6675 5.83301V3.50005C16.6675 3.45407 16.6302 3.4168 16.5843 3.4168H7.78319H7.36061L7.29018 3.00013C7.07744 1.74147 6.09133 0.755343 4.83262 0.542571C3.19925 0.266472 1.65133 1.36677 1.37527 3.00013C1.0992 4.6335 2.1995 6.18142 3.83285 6.45749L3.83286 6.45749C5.46622 6.73359 7.01412 5.6333 7.29022 3.99993L7.36065 3.58326H7.78322H13.0848H13.5848V4.08326V5.83297C13.5848 5.87895 13.6221 5.91622 13.6681 5.91622C13.714 5.91622 13.7513 5.87895 13.7513 5.83297V4.08326V3.58326H14.2513H16.001ZM1.50334 3.50005C1.50334 1.93544 2.77169 0.667089 4.33629 0.667089C5.9009 0.667089 7.16925 1.93544 7.16925 3.50005C7.16925 5.06465 5.9009 6.33301 4.33629 6.33301C2.77169 6.33301 1.50334 5.06465 1.50334 3.50005Z" fill="#BBBBBB" stroke="#BBBBBB"/>
</svg>
