<svg width="15" height="15" viewBox="0 0 15 15" fill="none" xmlns="http://www.w3.org/2000/svg">
<path d="M13.4566 7.11998C13.7728 6.36224 13.9627 5.55665 13.9627 4.72262C13.9192 1.77961 10.6129 -0.950511 7.48135 2.89179C4.34986 -0.950511 1.0435 1.77961 1 4.72262C1 7.83887 3.65197 10.5579 5.62931 11.8683" stroke="#9DB199" stroke-linecap="round" stroke-linejoin="round"/>
<path d="M9.40938 9.40966C9.89975 8.91929 9.97566 8.46944 10.3319 8.01613C10.6107 7.66129 11.1386 7.66129 11.4175 8.01613C11.7737 8.46944 11.8496 8.91929 12.34 9.40966C12.8304 9.90003 13.2802 9.97594 13.7335 10.3322C14.0884 10.6111 14.0884 11.139 13.7335 11.4179C13.2802 11.7741 12.8304 11.85 12.3401 12.3404C11.8497 12.8308 11.7738 13.2806 11.4175 13.7339C11.1387 14.0888 10.6107 14.0888 10.3319 13.7339C9.97569 13.2806 9.89979 12.8308 9.40942 12.3404C8.91905 11.85 8.4692 11.7741 8.01589 11.4179C7.66105 11.139 7.66105 10.6111 8.01589 10.3322C8.4692 9.97594 8.91902 9.90002 9.40938 9.40966Z" stroke="#9DB199" stroke-linecap="round" stroke-linejoin="round"/>
</svg>
