<svg xmlns="http://www.w3.org/2000/svg" fill="none" viewBox="0 0 14 14" id="Like-1--Streamline-Flex.svg" height="14" width="14"><desc>Like 1 Streamline Icon: https://streamlinehq.com</desc><g id="like-1--reward-social-up-rating-media-like-thumb-hand"><path id="Vector 109" fill="#d7e0ff" d="M4.0655 11.7742H3.443V5.9595L6.5112 1.5924C6.7592 1.2394 7.1636 1.0293 7.5951 1.0293C8.3996 1.0293 9.0184 1.7406 8.907 2.5374L8.6757 4.1907H10.6986C11.583 4.1907 13.3519 5.0751 13.3519 6.8439C13.3519 8.6127 11.5733 12.6585 9.692 12.6585C7.2156 12.6585 5.0973 12.069 4.0655 11.7741Z" stroke-width="1"></path><path id="Rectangle 40" fill="#ffffff" d="M0.6481 5.7296C0.6481 4.9579 1.2738 4.3322 2.0456 4.3322S3.443 4.9579 3.443 5.7296V11.5733C3.443 12.3451 2.8173 12.9707 2.0456 12.9707S0.6481 12.3451 0.6481 11.5733V5.7296Z" stroke-width="1"></path><path id="Vector 107" stroke="#4147d5" stroke-linecap="round" stroke-linejoin="round" d="M4.0655 11.7742H3.443V5.9595L6.5112 1.5924C6.7592 1.2394 7.1636 1.0293 7.5951 1.0293C8.3996 1.0293 9.0184 1.7406 8.907 2.5374L8.6757 4.1907H10.6986C11.583 4.1907 13.3519 5.0751 13.3519 6.8439C13.3519 8.6127 11.5733 12.6585 9.692 12.6585C7.2156 12.6585 5.0973 12.069 4.0655 11.7741Z" stroke-width="1"></path><path id="Rectangle 39" stroke="#4147d5" stroke-linecap="round" stroke-linejoin="round" d="M0.6481 5.7296C0.6481 4.9579 1.2738 4.3322 2.0456 4.3322H2.0456C2.8173 4.3322 3.443 4.9579 3.443 5.7296V11.5733C3.443 12.3451 2.8173 12.9707 2.0456 12.9707H2.0456C1.2738 12.9707 0.6481 12.3451 0.6481 11.5733V5.7296Z" stroke-width="1"></path></g></svg>