<svg xmlns="http://www.w3.org/2000/svg" fill="none" viewBox="0 0 14 14" id="User-Search--Streamline-Flex.svg" height="14" width="14"><desc>User Search Streamline Icon: https://streamlinehq.com</desc><g id="user-search--close-geometric-human-person-search-user"><path id="Union" fill="#8fbffa" fill-rule="evenodd" d="M6.53692 0C4.51747 0 2.8646 0.569619 1.71711 1.71711 0.569619 2.8646 0 4.51747 0 6.53692c0 2.01946 0.569619 3.67228 1.71711 4.81978 1.14749 1.1475 2.80036 1.7171 4.81981 1.7171 2.01946 0 3.67228 -0.5696 4.81978 -1.7171 1.1475 -1.1475 1.7171 -2.80032 1.7171 -4.81978 0 -2.01945 -0.5696 -3.67232 -1.7171 -4.81981C10.2092 0.569619 8.55638 0 6.53692 0Z" clip-rule="evenodd" stroke-width="1"></path><path id="Subtract" fill="#2859c5" fill-rule="evenodd" d="M10.5566 12.011c0.2888 -0.1919 0.5559 -0.41 0.8002 -0.6543 0.2443 -0.2443 0.4624 -0.5115 0.6544 -0.8002l1.6877 1.6877c0.4017 0.4016 0.4017 1.0529 0.0001 1.4545 -0.4017 0.4017 -1.0529 0.4017 -1.4546 0.0001l-1.6878 -1.6878Z" clip-rule="evenodd" stroke-width="1"></path><path id="Union_2" fill="#2859c5" fill-rule="evenodd" d="M4.44223 5.13288c0 1.36988 0.77056 2.14044 2.14045 2.14044 1.36988 0 2.14044 -0.77056 2.14044 -2.14044 0 -1.36989 -0.77056 -2.14045 -2.14044 -2.14045 -1.36989 0 -2.14045 0.77056 -2.14045 2.14045ZM4.2793 9.06899c-0.50765 0.41493 -0.89111 0.95691 -1.11436 1.56631 0.78176 0.5873 1.88757 0.9394 3.3726 0.9394 1.53029 0 2.65789 -0.3739 3.44317 -0.9937 -0.22583 -0.5873 -0.60144 -1.10946 -1.09396 -1.51201 -0.65015 -0.53141 -1.46403 -0.8217 -2.30372 -0.8217 -0.8397 0 -1.65357 0.29029 -2.30373 0.8217Z" clip-rule="evenodd" stroke-width="1"></path></g></svg>