<svg xmlns="http://www.w3.org/2000/svg" fill="none" viewBox="0 0 16 16" id="Send-Email--Streamline-Flex.svg" height="16" width="16"><desc>Send Email Streamline Icon: https://streamlinehq.com</desc><g id="send-email--mail-send-email-paper-airplane"><path id="Union" fill="#8fbffa" fill-rule="evenodd" d="M15.290857142857142 0.687264c-0.5691428571428571 -0.5561828571428571 -1.3578285714285714 -0.8027657142857143 -2.6861714285714284 -0.6340085714285714C11.305268571428572 0.21834628571428571 9.39232 0.7905451428571428 6.449097142857143 1.9713485714285715c-2.019325714285714 0.8101371428571428 -3.712548571428571 1.4910742857142856 -4.833885714285715 2.303314285714286 -0.5720811428571428 0.41437714285714283 -1.0343554285714285 0.8889028571428571 -1.3163142857142855 1.4702514285714285 -0.2862868571428571 0.5902857142857142 -0.36342411428571425 1.2426857142857142 -0.24356011428571428 1.967142857142857l0.3796892571428572 -0.06282285714285714 -0.37968914285714284 0.06282285714285714c0.110568 0.6682742857142857 0.49799885714285713 1.44528 0.985416 2.193542857142857 0.45736114285714285 0.7021142857142856 1.034344 1.4264571428571429 1.647566857142857 2.083771428571428v2.238514285714286c0 1.5602285714285713 1.8665142857142856 2.3242285714285713 3.003417142857143 1.314285714285714l0.6864 -0.6095999999999999c0.60664 0.3358857142857143 1.2127657142857142 0.5886857142857143 1.7485371428571428 0.6733714285714285 0.7342971428571429 0.116 1.3939771428571428 0.04137142857142857 1.99184 -0.2354285714285714 0.5907657142857143 -0.2734857142857143 1.0759657142857142 -0.7236571428571428 1.5014857142857143 -1.2844571428571427 0.8328 -1.0977142857142856 1.5308571428571427 -2.7551542857142852 2.359657142857143 -4.727531428571428 1.2085714285714286 -2.87584 1.7956571428571426 -4.748388571428571 1.9653714285714285 -6.023085714285714 0.08548571428571429 -0.6427885714285715 0.06982857142857142 -1.1662514285714285 -0.047085714285714286 -1.6049485714285714 -0.12034285714285714 -0.4512571428571428 -0.3394285714285714 -0.7816937142857142 -0.6070857142857142 -1.0432274285714285Z" clip-rule="evenodd" stroke-width="1"></path><path id="Intersect" fill="#2859c5" fill-rule="evenodd" d="M2.688354285714286 12.032c2.8417942857142857 -2.732137142857143 5.852434285714285 -5.221234285714285 9.09278857142857 -7.520262857142857 0.3217142857142857 -0.22826285714285713 0.3974857142857143 -0.6741371428571429 0.16925714285714286 -0.9958742857142857s-0.6741485714285713 -0.3974971428571428 -0.9958857142857142 -0.1692342857142857C7.686468571428572 5.665302857142857 4.646742857142857 8.174959999999999 1.7766514285714285 10.926948571428571c0.2864685714285714 0.36385142857142855 0.5942285714285714 0.72208 0.9117028571428571 1.0624228571428571v0.042628571428571425Z" clip-rule="evenodd" stroke-width="1"></path></g></svg>