<svg xmlns="http://www.w3.org/2000/svg" fill="none" viewBox="0 0 14 14" id="Synchronize-Refresh-Arrow-3--Streamline-Ultimate.svg" height="14" width="14"><desc>Synchronize Refresh Arrow 3 Streamline Icon: https://streamlinehq.com</desc><path fill="#000000" d="M6.677416666666667 0.72912c1.2545750000000002 0.050452500000000004 2.465691666666667 0.47360250000000004 3.4787083333333335 1.2154449999999999 1.0130166666666667 0.7418425000000001 1.7820250000000002 1.7687191666666668 2.208791666666667 2.949560833333334 0.011666666666666667 0.031202500000000005 0.03365833333333334 0.057475833333333344 0.06230000000000001 0.07445666666666667 0.028641666666666666 0.016980833333333334 0.062241666666666674 0.0236425 0.0952 0.018870833333333333l0.9858333333333333 -0.13999416666666667c0.054366666666666674 -0.0086275 0.11001666666666667 -0.0017033333333333334 0.16059166666666666 0.019973333333333336s0.09403333333333334 0.05721916666666667 0.12524166666666667 0.10252666666666667c0.02835 0.046585 0.043341666666666674 0.10005916666666667 0.043341666666666674 0.1545775 0 0.054524166666666665 -0.014991666666666669 0.10799833333333334 -0.043341666666666674 0.15458333333333335l-1.5341666666666667 2.741655c-0.023858333333333336 0.041650000000000006 -0.05769166666666667 0.07670833333333334 -0.09840833333333333 0.1022 -0.04065833333333334 0.025433333333333336 -0.08703333333333334 0.040425 -0.13492500000000002 0.043633333333333336 -0.04439166666666667 0.008108333333333334 -0.09012500000000001 0.004841666666666667 -0.13294166666666668 -0.009391666666666668 -0.042875 -0.014291666666666668 -0.08137500000000002 -0.03914166666666667 -0.11205833333333334 -0.072275l-2.1991666666666667 -2.181666666666667c-0.03745 -0.03861666666666667 -0.06375833333333333 -0.08667166666666666 -0.07612500000000001 -0.13906083333333333 -0.012308333333333334 -0.05238916666666667 -0.010208333333333335 -0.10714083333333334 0.006125000000000001 -0.1584275 0.015458333333333334 -0.052144166666666665 0.045733333333333334 -0.09867083333333333 0.08715 -0.13389250000000003 0.041416666666666664 -0.035215833333333335 0.092225 -0.05761 0.14618333333333333 -0.064435l1.0033333333333334 -0.15750583333333332c0.02164166666666667 -0.0030566666666666667 0.042291666666666665 -0.010937500000000001 0.06049166666666667 -0.023053333333333335 0.018141666666666667 -0.012115833333333334 0.03336666666666667 -0.028157500000000002 0.04450833333333334 -0.046946666666666664 0.010325 -0.02086 0.015633333333333336 -0.04381416666666667 0.015633333333333336 -0.0670775 0 -0.02326916666666667 -0.005308333333333334 -0.04622333333333334 -0.015633333333333336 -0.06708916666666667 -0.3714083333333334 -0.8222958333333334 -0.9641916666666668 -1.5251016666666666 -1.7120833333333334 -2.0298658333333335 -0.7478333333333333 -0.50477 -1.6213750000000002 -0.7916125 -2.522916666666667 -0.8284675000000001 -0.8289283333333334 -0.02897416666666667 -1.6512883333333332 0.15678250000000002 -2.38728 0.5392625 -0.7359975000000001 0.38247416666666667 -1.3606483333333332 0.9486808333333333 -1.8133500000000002 1.6436933333333332 -0.45270166666666667 0.6950125 -0.7180833333333334 1.4952408333333336 -0.7704083333333334 2.322990833333334 -0.052325 0.8278083333333334 0.11019166666666669 1.6550916666666666 0.47177666666666673 2.4015833333333334 0.361585 0.7464916666666668 0.9099650000000001 1.3868166666666668 1.5919400000000001 1.8589083333333336 0.6819808333333335 0.47215 1.474404166666667 0.7599666666666667 2.3003633333333333 0.8355666666666667 0.826 0.07565833333333334 1.6575416666666667 -0.063525 2.4138916666666668 -0.40390000000000004 0.7564083333333333 -0.34043333333333337 1.4119583333333334 -0.8705083333333333 1.9030666666666667 -1.53895 0.05226666666666667 -0.087325 0.12220833333333334 -0.16269166666666668 0.2053916666666667 -0.22137500000000002 0.083125 -0.05868333333333334 0.177625 -0.09928333333333333 0.27743333333333337 -0.11923333333333334 0.09975000000000002 -0.01989166666666667 0.20265 -0.018725 0.30193333333333333 0.0034416666666666667 0.09934166666666668 0.022225 0.19290833333333335 0.064925 0.27469166666666667 0.125475 0.08178333333333333 0.06055000000000001 0.15003333333333332 0.13749166666666668 0.20025833333333334 0.22598333333333337 0.05028333333333333 0.08849166666666668 0.08143333333333334 0.18649166666666667 0.09158333333333334 0.28775833333333334 0.010091666666666667 0.10126666666666667 -0.0011083333333333333 0.203525 -0.0329 0.3001833333333333 -0.03179166666666667 0.09665833333333333 -0.08347500000000001 0.18561666666666668 -0.151725 0.2611 -0.6405000000000001 0.8712666666666667 -1.4954333333333334 1.5620500000000002 -2.481791666666667 2.0053833333333335 -0.9863000000000001 0.44327500000000003 -2.0704833333333332 0.6239916666666667 -3.1472583333333333 0.5245333333333334 -1.0767983333333333 -0.09945833333333334 -2.1095608333333336 -0.47565 -2.998024166666667 -1.0920583333333334 -0.8884575 -0.6164666666666667 -1.6024108333333333 -1.45215 -2.0725308333333334 -2.425966666666667C0.3260226666666667 8.748016666666668 0.11571525 7.669141666666667 0.18564525 6.590033333333333c0.06992941666666667 -1.0790675 0.41771975000000006 -2.1217466666666667 1.0095930833333333 -3.0267475000000004 0.5918791666666667 -0.9049950000000001 1.4077233333333334 -1.6415641666666667 2.36831 -2.1381675 0.9605866666666667 -0.4965975 2.0332725000000003 -0.7363591666666667 3.1138683333333335 -0.6959983333333334Z" stroke-width="1"></path></svg>