<svg xmlns="http://www.w3.org/2000/svg" fill="none" viewBox="0 0 24 24" id="Upload-Circle--Streamline-Sharp.svg" height="24" width="24"><desc>Upload Circle Streamline Icon: https://streamlinehq.com</desc><g id="Flat/01-Interface-Essential/11-Upload-Download/upload-circle--arrow-circle-download-internet-network-server-up-upload"><path id="Union" fill="#8fbffa" fill-rule="evenodd" d="M12 24c-3.1826 0 -6.23484 -1.2643 -8.48528 -3.5147C1.26428 18.2348 0 15.1826 0 12c0 -3.1826 1.26428 -6.23484 3.51472 -8.48528C5.76516 1.26428 8.8174 0 12 0s6.2348 1.26428 8.4853 3.51472C22.7357 5.76516 24 8.8174 24 12s-1.2643 6.2348 -3.5147 8.4853C18.2348 22.7357 15.1826 24 12 24Z" clip-rule="evenodd" stroke-width="1"></path><path id="Union_2" fill="#2859c5" fill-rule="evenodd" d="M16.25 11.75v-1.5607L12 5.93933 7.75 10.1893V11.75h2.75V18h3v-6.25h2.75Z" clip-rule="evenodd" stroke-width="1"></path></g></svg>